<?xml version="1.0" encoding="utf-8"?>
<!-- Generator: Adobe Illustrator 27.3.0, SVG Export Plug-In . SVG Version: 6.00 Build 0)  -->
<svg version="1.1" id="Layer_1" xmlns="http://www.w3.org/2000/svg" xmlns:xlink="http://www.w3.org/1999/xlink" x="0px" y="0px"
	 viewBox="0 0 43.1 43.1" style="enable-background:new 0 0 43.1 43.1;" xml:space="preserve">
<style type="text/css">
	.st0{fill:#615D5D;}
	.st1{fill:none;stroke:#615D5D;stroke-width:2;}
</style>
<path class="st0" d="M21.5,14c2.5,0,2.8,0,3.7,0.1c0.9,0,1.4,0.2,1.7,0.3c0.4,0.2,0.7,0.4,1.1,0.7c0.3,0.3,0.5,0.6,0.7,1.1
	c0.1,0.3,0.3,0.8,0.3,1.7c0,1,0.1,1.3,0.1,3.7s0,2.8-0.1,3.7c0,0.9-0.2,1.4-0.3,1.7c-0.2,0.4-0.4,0.7-0.7,1.1
	c-0.3,0.3-0.6,0.5-1.1,0.7c-0.3,0.1-0.8,0.3-1.7,0.3c-1,0-1.3,0.1-3.7,0.1s-2.8,0-3.7-0.1c-0.9,0-1.4-0.2-1.7-0.3
	c-0.4-0.2-0.7-0.4-1.1-0.7c-0.3-0.3-0.5-0.6-0.7-1.1c-0.1-0.3-0.3-0.8-0.3-1.7c0-1-0.1-1.3-0.1-3.7s0-2.8,0.1-3.7
	c0-0.9,0.2-1.4,0.3-1.7c0.2-0.4,0.4-0.7,0.7-1.1c0.3-0.3,0.6-0.5,1.1-0.7c0.3-0.1,0.8-0.3,1.7-0.3C18.8,14,19.1,14,21.5,14z
	 M21.5,12.3c-2.5,0-2.8,0-3.8,0.1c-1,0-1.7,0.2-2.2,0.4c-0.6,0.2-1.1,0.6-1.6,1.1c-0.5,0.5-0.8,1-1.1,1.6c-0.2,0.6-0.4,1.3-0.4,2.2
	c0,1-0.1,1.3-0.1,3.8s0,2.8,0.1,3.8c0,1,0.2,1.7,0.4,2.2c0.2,0.6,0.6,1.1,1.1,1.6c0.5,0.5,1,0.8,1.6,1.1c0.6,0.2,1.3,0.4,2.2,0.4
	s1.3,0.1,3.8,0.1s2.8,0,3.8-0.1c1,0,1.7-0.2,2.2-0.4c0.6-0.2,1.1-0.6,1.6-1.1c0.5-0.5,0.8-1,1.1-1.6c0.2-0.6,0.4-1.3,0.4-2.2
	c0-1,0.1-1.3,0.1-3.8s0-2.8-0.1-3.8c0-1-0.2-1.7-0.4-2.2c-0.2-0.6-0.6-1.1-1.1-1.6c-0.5-0.5-1-0.8-1.6-1.1c-0.6-0.2-1.3-0.4-2.2-0.4
	C24.4,12.3,24.1,12.3,21.5,12.3z"/>
<path class="st0" d="M21.5,16.8c-1.2,0-2.4,0.5-3.3,1.4c-0.9,0.9-1.4,2.1-1.4,3.3s0.5,2.4,1.4,3.3c0.9,0.9,2.1,1.4,3.3,1.4
	c2.6,0,4.7-2.1,4.7-4.7S24.2,16.8,21.5,16.8L21.5,16.8z M21.5,24.6c-0.8,0-1.6-0.3-2.2-0.9c-0.6-0.6-0.9-1.4-0.9-2.2
	s0.3-1.6,0.9-2.2c0.6-0.6,1.4-0.9,2.2-0.9s1.6,0.3,2.2,0.9c0.6,0.6,0.9,1.4,0.9,2.2s-0.3,1.6-0.9,2.2C23.1,24.3,22.4,24.6,21.5,24.6
	z M27.6,16.6c0,0.1,0,0.3-0.1,0.4c-0.1,0.1-0.1,0.3-0.2,0.4c-0.1,0.1-0.2,0.2-0.4,0.2c-0.1,0.1-0.3,0.1-0.4,0.1s-0.3,0-0.4-0.1
	c-0.1-0.1-0.3-0.1-0.4-0.2c-0.1-0.1-0.2-0.2-0.2-0.4c-0.1-0.1-0.1-0.3-0.1-0.4c0-0.3,0.1-0.6,0.3-0.8c0.2-0.2,0.5-0.3,0.8-0.3
	s0.6,0.1,0.8,0.3C27.5,16,27.6,16.3,27.6,16.6z"/>
<circle class="st1" cx="21.5" cy="21.5" r="20.5"/>
</svg>
